<?xml version="1.0" encoding="UTF-8"?>
<svg id="Layer_2" xmlns="http://www.w3.org/2000/svg" version="1.1" xmlns:xlink="http://www.w3.org/1999/xlink" viewBox="140 430 720 140">
  <!-- Generator: Adobe Illustrator 29.4.0, SVG Export Plug-In . SVG Version: 2.1.0 Build 152)  -->
  <defs>
    <style>
      .st0 {
        fill: #395d64;
      }

      .st1 {
        fill: none;
      }

      .st2 {
        clip-path: url(#clippath-1);
      }

      .st3 {
        clip-path: url(#clippath);
      }
    </style>
    <clipPath id="clippath">
      <rect class="st1" x="141" y="439.5" width="109.3" height="121"/>
    </clipPath>
    <clipPath id="clippath-1">
      <rect class="st1" x="277.6" y="439.5" width="581.4" height="121"/>
    </clipPath>
  </defs>
  <g class="st3">
    <path class="st0" d="M245.6,469.4l-22.7-24.3c-3-3.2-7-5-11.2-5h-32.1c-4.2,0-8.3,1.8-11.2,5l-22.7,24.3c-3,3.2-4.7,7.5-4.7,12v34.4c0,4.5,1.7,8.8,4.7,12l22.7,24.3c3,3.2,7,5,11.2,5h32.1c4.2,0,8.3-1.8,11.2-5l22.7-24.3c3-3.2,4.7-7.5,4.7-12v-34.4c0-4.5-1.7-8.8-4.7-12M169.7,474.2l7.3-4.8,3,23.5-5.7,3.3-4.6-22ZM175,499.7l5.5-2.9,1.6,18.7-4.6,1.7-2.4-17.5h0ZM177.7,520.5l4.5-1.3.8,16.2-3.8.6-1.4-15.4ZM179.4,552v-13c0,0,3.7-.3,3.7-.3l.2,13.3h-3.9ZM181.1,467.6l12-2.1.3,24.6-9.5,1.5-2.7-24h0ZM184.2,495.5l9.2-.9.2,19.4-8.2.7-1.3-19.2ZM193.7,517.9l.2,16.7-7.6.5-.6-16.5,8-.6h0ZM186.2,552v-13.5c0,0,7.7-.3,7.7-.3v13.8s-7.7,0-7.7,0ZM197.3,552v-13.8c0,0,7.7.3,7.7.3v13.5c0,0-7.7,0-7.7,0ZM205,535.1l-7.6-.5.2-16.7,8,.6-.5,16.5h0ZM205.8,514.8l-8.2-.7.2-19.4,9.2.9-1.3,19.2ZM197.9,490.1l.3-24.6,12,2.1-2.7,24-9.6-1.5ZM211.9,552h-3.9l.2-13.3,3.8.3v13c0,0,0,0,0,0ZM212.1,535.9l-3.8-.6.8-16.2,4.5,1.3-1.4,15.4ZM213.9,517.2l-4.6-1.7,1.6-18.7,5.4,2.9-2.4,17.5h0ZM217,496.2l-5.7-3.3,3-23.5,7.3,4.8-4.6,22Z"/>
  </g>
  <g class="st2">
    <path class="st0" d="M398.1,440.1l-48.2,46.8,38.4,67.7h-37.2l-25.2-46-13.9,13.2-2.8,32.8h-31.6l9.8-114.5h31.6l-3.9,45.4,44.9-45.4h38.2ZM407.6,440.1l-9.8,114.5h31.6l3.5-40.8h50.7l2.3-27h-50.7l1.5-18.1h53.9l2.4-28.6h-85.5ZM509.3,545.1c8.6,8,20.3,12.1,35.2,12.1s27.8-4,37.8-11.9c9.8-7.9,15.4-19.5,16.7-34.6l6-70.6h-31.6l-6.1,70.9c-.5,6-2.6,10.6-6.1,13.8-3.6,3.2-8.4,4.8-14.4,4.8s-10.5-1.6-13.6-4.8c-3-3.2-4.3-7.8-3.8-13.8l6.1-70.9h-31.6l-6,70.6c-1.3,14.9,2.5,26.4,11.3,34.4M796.3,483.6c-3.7,11.2-6.3,19.3-7.8,24.6-.6-5.3-1.8-13.5-3.6-24.6l-7-43.4h-48.3l-9.8,114.5h30l2.8-32.5c1.8-21,3-38.9,3.6-53.5,1.5,9.4,3,17.9,4.4,25.4l11.1,60.6h25.5l21.4-60.6c2.8-7.5,5.7-16,8.8-25.4-1.9,14.7-3.7,32.5-5.5,53.5l-2.8,32.5h30l9.8-114.5h-48.3l-14.4,43.4ZM704.5,450c7,6.6,10,15.6,9,27-1.1,11.4-5.7,20.4-13.9,27-8.2,6.6-19.1,9.9-32.5,9.9h-20.6l-3.5,40.8h-31.6l9.8-114.5h52.7c13.5,0,23.7,3.3,30.7,9.9M682,477c.4-3.9-.6-6.8-2.9-8.8-2.3-2-5.6-3.1-10-3.1h-18.6l-2,23.8h18.4c4.4,0,7.9-1,10.6-3.1,2.7-2,4.2-5,4.5-8.8"/>
  </g>
</svg>